<svg xmlns="http://www.w3.org/2000/svg" viewBox="0 0 512 512">
  <defs>
    <linearGradient id="bg" x1="0%" y1="0%" x2="100%" y2="100%">
      <stop offset="0%" style="stop-color:#6366f1"/>
      <stop offset="50%" style="stop-color:#8b5cf6"/>
      <stop offset="100%" style="stop-color:#a78bfa"/>
    </linearGradient>
    <linearGradient id="wave" x1="0%" y1="0%" x2="100%" y2="0%">
      <stop offset="0%" style="stop-color:#c4b5fd"/>
      <stop offset="100%" style="stop-color:#e0e7ff"/>
    </linearGradient>
  </defs>
  <circle cx="256" cy="256" r="240" fill="url(#bg)"/>
  <g transform="translate(256,256)" stroke="url(#wave)" stroke-width="6" fill="none" stroke-linecap="round">
    <circle r="60" opacity="0.3"/>
    <circle r="100" opacity="0.25"/>
    <circle r="140" opacity="0.2"/>
    <circle r="180" opacity="0.15"/>
    <circle cx="0" cy="-60" r="12" fill="#e0e7ff"/>
    <circle cx="52" cy="30" r="10" fill="#c4b5fd"/>
    <circle cx="-52" cy="30" r="10" fill="#c4b5fd"/>
    <circle cx="87" cy="-50" r="8" fill="#a78bfa"/>
    <circle cx="-87" cy="-50" r="8" fill="#a78bfa"/>
    <circle cx="0" cy="100" r="9" fill="#ddd6fe"/>
    <circle cx="120" cy="58" r="7" fill="#818cf8"/>
    <line x1="0" y1="-60" x2="52" y2="30" stroke-width="2" opacity="0.4"/>
    <line x1="0" y1="-60" x2="-52" y2="30" stroke-width="2" opacity="0.4"/>
    <line x1="52" y1="30" x2="-52" y2="30" stroke-width="2" opacity="0.4"/>
    <line x1="0" y1="-60" x2="87" y2="-50" stroke-width="1.5" opacity="0.3"/>
    <line x1="52" y1="30" x2="0" y2="100" stroke-width="1.5" opacity="0.3"/>
    <line x1="87" y1="-50" x2="120" y2="58" stroke-width="1.5" opacity="0.3"/>
  </g>
  <text x="256" y="290" text-anchor="middle" fill="white" font-family="Inter, sans-serif" font-size="72" font-weight="800" letter-spacing="-2">O</text>
</svg>
